<?xml version="1.0" encoding="UTF-8" standalone="no"?>
<!-- Creator: CorelDRAW (Testversion) -->

<svg
   xml:space="preserve"
   width="78.412598mm"
   height="77.5056mm"
   version="1.1"
   style="clip-rule:evenodd;fill-rule:evenodd;image-rendering:optimizeQuality;shape-rendering:geometricPrecision;text-rendering:geometricPrecision"
   viewBox="0 0 7841.2598 7750.56"
   id="svg196"
   sodipodi:docname="caraxes_logo.svg"
   inkscape:version="1.2.2 (b0a8486541, 2022-12-01)"
   xmlns:inkscape="http://www.inkscape.org/namespaces/inkscape"
   xmlns:sodipodi="http://sodipodi.sourceforge.net/DTD/sodipodi-0.dtd"
   xmlns="http://www.w3.org/2000/svg"
   xmlns:svg="http://www.w3.org/2000/svg"><sodipodi:namedview
   id="namedview198"
   pagecolor="#ffffff"
   bordercolor="#666666"
   borderopacity="1.0"
   inkscape:pageshadow="2"
   inkscape:pageopacity="0.0"
   inkscape:pagecheckerboard="0"
   inkscape:document-units="mm"
   showgrid="false"
   inkscape:zoom="0.38271843"
   inkscape:cx="1255.4922"
   inkscape:cy="226.01472"
   inkscape:window-width="3840"
   inkscape:window-height="2076"
   inkscape:window-x="0"
   inkscape:window-y="1080"
   inkscape:window-maximized="1"
   inkscape:current-layer="Ebene_x0020_1"
   inkscape:showpageshadow="2"
   inkscape:deskcolor="#d1d1d1" />
 <defs
   id="defs4">
  <style
   type="text/css"
   id="style2">
   <![CDATA[
    .str1 {stroke:#2B2A29;stroke-width:20;stroke-miterlimit:22.9256}
    .str0 {stroke:#2B2A29;stroke-width:20;stroke-miterlimit:22.9256}
    .str2 {stroke:black;stroke-width:20;stroke-linecap:square;stroke-miterlimit:22.9256}
    .fil0 {fill:none}
    .fil2 {fill:#2B2A29}
    .fil3 {fill:#E63D24}
    .fil1 {fill:#E31E24}
    .fil5 {fill:#1F1B20}
    .fil4 {fill:black}
    .fil10 {fill:#221E1C}
    .fil7 {fill:#3C3B3B}
    .fil8 {fill:#4C4946}
    .fil11 {fill:#994C19}
    .fil9 {fill:#9A9D9E}
    .fil6 {fill:#ADAFB0}
   ]]>
  </style>
 
   
   
   
   
   
   
   
   
   
   
   
   
   
   
  </defs>
 <g
   id="Ebene_x0020_1"
   inkscape:label="Ebene 1"
   inkscape:groupmode="layer"
   transform="translate(-7727.3995,-6240.3089)">
  <metadata
   id="CorelCorpID_0Corel-Layer" />
  
  
  
  
  
  
  
  
  
  
  
  
  
  
  
  
  
  
  
  
  
  
  
  
  
  
  
  
  
  
  
 <g
   id="g4482"
   inkscape:export-filename="/home/marina/Downloads/g4482.png"
   inkscape:export-xdpi="98"
   inkscape:export-ydpi="98"><path
     class="fil3"
     d="m 14645.229,11657.239 c -62.76,11.57 -73.85,-40.38 -76.32,-91.99 -7.27,-151.19 -31,-352.89 192.78,-145.4 83.81,77.72 95.02,99.21 157.78,191.6 22.76,33.5 51.42,66.18 75.9,98.75 21.87,29.11 57.05,105.31 -4.13,111.4 -20.02,-85.81 -34.04,-87.64 -83.47,-154.91 -51.94,-70.68 -159.02,-241.91 -259.14,-176.05 -77.61,51.07 -14.51,114.58 -3.4,166.6 z m -4015.19,-3102.97 c -69.96,-51.73 -210.19,-187.2001 -277.91,-209.6801 12.59,68.2501 158.25,314.0901 199.51,398.9801 64.41,132.52 129.96,264.91 193.51,397.82 30.86,64.56 70.42,135.61 96.9,200.77 28.16,69.29 53.95,141.67 82.92,210.81 30.51,72.84 89.43,103.61 149.84,148.64 52.97,39.48 117.85,107.04 186.03,110.94 21.54,-124.97 -99.87,-199.73 -103.81,-254.52 46.99,-14.82 75.71,46.95 96.07,79.86 69.82,112.81 154.6,215.29 238.99,316.8 56.46,67.91 318.57,351.35 328.95,411.82 -57.85,36.83 -76.45,1.84 -109.69,87.72 -43.1,111.35 35.89,224.2 155.07,220.94 71.34,-1.95 81.25,-30.03 126.85,-68.85 54.08,20.85 100.2,117.08 129.58,166.12 17.71,29.56 187.79,64.54 227.68,71.4 135.17,23.23 352.69,71.05 481.68,113.38 35.14,11.53 70.16,32.23 106.03,44.68 43.86,15.22 62.16,15.5 104.12,42.23 92.86,59.12 235.78,196.37 319.89,275.18 40.34,37.8 133.89,103.91 129.17,160.91 -32.07,-4.38 -91.02,-51.59 -124.97,-66.45 -142.32,-62.26 -292.48,-100.6 -440.13,-143.42 -177.91,-51.61 -447.48,-147.53 -626.03,-155.72 12,33.84 101.95,115.51 108.28,145.07 -23.36,17.39 -181.17,72.53 -216.89,82.65 -71.4,20.24 -183.63,44.78 -256.54,37.85 -194.77,-18.52 -237.09,-120.02 -311.98,-281.67 -38.39,-82.88 -153.68,-44.62 -218.98,-28.03 -78.62,19.98 -160.25,30.48 -235.26,62.65 -74.75,32.06 -124.78,65 -193.89,103.91 -60.49,34.06 -83.23,42.83 -143.24,83.08 -13.34,8.95 -23.47,27.79 -35.78,32.71 -20.04,-10.37 -53.22,-60.32 -70.23,-79.57 -21.08,-23.85 -53.5,-51.66 -78.13,-72.89 -122.72,-105.78 -236.16,-183.23 -404.23,-192.57 -54.39,-3.03 -224.33,3.45 -266.2995,33.55 48.6795,45.3 168.9095,55.33 231.2095,133.99 34.35,43.35 154.72,174.95 121.36,229.91 -14.83,10.48 -112.03,-61.45 -132.5,-72.15 -94.98,-49.65 -492.3695,-117.92 -515.8695,8.18 83.93,25.45 175.63,31.07 248.2,85.6 46.2,34.71 147.5095,156.51 93.8995,211.86 -32.9995,-6.37 -106.4695,-64.29 -160.5795,-82.74 -64.4,-21.97 -143.89,-21.37 -207.24,4.36 -111.21,45.16 -218.54,127.95 -235.07,253.31 99.21,-9.76 101.88,-48.45 294.97,-45.7 58.27,0.83 209.28,44.18 212.34,119.43 1.86,45.73 -78.59,47.25 -112.82,54.25 -50.84,10.39 -78.17,15.35 -120.4,47.18 -59.17,44.59 -134.34,119.39 -139.72,197.06 80.26,-16.43 110.68,-83.23 229.27,-94.36 79.99,-7.51 221.1495,-15.31 215.06,100.76 -3.72,70.83 -108.55,127.09 -165.36,153.94 -127.69,60.35 -157.42,15.85 -273.51,16.94 7.07,37.09 90.69,90.37 126.67,108.43 66.58,33.43 100.07,41.52 99.5,129.85 -18.53,16.73 -84.96,31.42 -67.54,64.47 53.67,26.98 184.19,-16.02 210.64,93.3 10.63,43.95 -15.66,73.24 -52.59,90.6 -54.76,25.74 -75.07,11.02 -130.62,11.66 43.96,85.39 290.6595,-25.46 371.3895,16.7 62.62,32.71 41.38,93.61 0.33,134.01 -37.82,37.23 -125.7195,56.17 -138.4895,79.56 120.7095,24.81 111.5495,14.59 223.1795,-9.85 372.39,-81.54 180.15,78.25 161.12,111.04 31.41,49.79 129.67,48.88 180.87,32.24 88.48,-28.75 277.48,-132.59 363.29,-62.15 76.37,62.69 -13.19,106.48 -28.44,147.17 86.64,-1.44 86.87,-29.3 155.02,-63.53 41.45,-20.82 108.24,-50.85 153.82,-55.35 44.36,-4.38 135.39,5.73 147.46,59.01 13.86,61.16 -61.41,88.31 -78.89,130.5 93.02,-11.48 132.23,-65.62 191.71,-125.07 59.97,-59.94 144.7,-85.35 213.78,-19.16 0.27,51.64 -24.52,93.15 -32.86,137.85 20.44,-7.98 132.34,-110.35 151.85,-131.29 31,-33.27 34.17,-45.06 83.52,-54.34 42.03,-7.9 85.1,-7.7 128.19,-5.53 24.09,33.38 12.82,81.65 -5.72,115.45 -19.01,34.65 -59.74,61.13 -70.75,81.37 87.95,-28.74 126.08,-121.18 294.08,-142.73 94.55,-12.12 329.02,-16.98 418.89,2.59 72.25,15.73 401.65,79.31 450.64,96.85 28.66,10.26 49.66,21.27 80.48,26.98 178.78,33.12 351.95,84.38 530.56,120.32 117.76,23.7 231.83,58.19 348.83,83.42 61.53,13.27 124.42,24.22 186.91,31.78 54.24,6.56 125.8,8.69 144.66,71.61 17.99,60.02 -6.68,115.63 -47.46,158.97 -44.39,47.17 -83.35,55.7 -126.47,91.31 173.69,-24.78 400.17,-138.81 519.19,-270.2 57.75,-63.75 115.98,-151.3 171.55,-221.48 66.29,-83.7 89.74,-160.07 136.69,-253.01 155.29,-307.4 -312.69,-218.62 -477.5,-233.79 -102.34,-9.42 -215.82,-49.17 -316.08,-76.51 -411,-112.09 -819.99,-229.58 -1232.98,-334.67 -104.18,-26.51 -205.78,-46.27 -308.2,-80.69 -197.81,-66.48 -408.49,-117.14 -610.71,-171.11 -98.43,-26.27 -208.51,-55.16 -304.16,-88.59 -92.94,-32.48 -176.37,-82.75 -265.44,-123.33 -50.46,-22.99 -90.37,-36.01 -141.2,-55.02 -36.2,-13.53 -100.21,-48.44 -86.61,-96.62 24.48,-86.66 247.34,-23.7 309.27,-7.94 129.49,32.96 193.04,62.34 333.53,59.42 163.28,-3.4 191.77,7.28 344.08,44.7 100.13,24.6 251.4,31.35 356.63,36.52 119.17,5.85 235.23,24.35 353.06,28.46 242.81,8.46 483.6,47.34 729.56,52.4 130.67,2.68 261.08,0.51 391.75,-0.33 104.6,-0.68 277.97,-9.59 375.13,14.24 91.46,22.43 171.42,92.91 257.77,134.81 84.44,40.97 190.79,77.89 280.26,108.4 85.6,29.19 250.8,47.24 327.8,-9.62 88.95,-65.67 43.49,-391.53 31.18,-502.89 -6.07,-54.87 -22.13,-117.49 -17.69,-171.75 8.89,-108.7 99.72,-140.77 168.8,-220.62 -28.42,-39.75 -270.67,-232.8 -324.18,-273.87 -55.14,-42.33 -104.8,-95.2 -160.23,-137.53 -64.33,-49.13 -101.66,-73.48 -159.94,-133.5 -95.86,-98.71 -197.65,-204.36 -285.13,-310.05 -124.93,-150.92 -131.69,-223.85 -190.46,-401.02 -99.79,31.32 -158.11,82.19 -274.12,105.15 -105.01,20.79 -215.02,31.94 -322.04,50.94 -181.34,32.19 -278.57,-40.95 -428.17,-116.51 -40.86,-20.64 -88.01,-38.28 -126.86,-59.57 -104.63,-57.34 -267.12,-309.2 -333.88,-415.54 -72.09,-114.84 -145.62,-236.71 -196.11,-363.28 -17.57,-44.04 -26.89,-97.07 -50.64,-138.2 -51.74,24.78 -93.44,191.17 -304.46,287.98 -49.86,22.87 -173.34,56.84 -228.18,65.22 -99.8,15.24 -182.33,-3.89 -279.08,-7.56 10.8,49.11 93.19,115.72 131.02,150.43 96.08,88.14 178.11,195.21 256.5,298.92 27.98,37.02 114.47,121.21 91.97,167.6 -14.94,-5.04 -195.34,-227.39 -221.4,-260.03 -77.69,-97.31 -137.3,-172.97 -226.28,-262.07 -35.58,-35.62 -87.75,-90.87 -127.92,-118.41 -42.44,-29.09 -124.27,-51.36 -156.11,-85.67 -19.84,-21.39 -18.07,-45.87 -47.54,-75.48 -60.18,-60.48 -115.42,-125.39 -174.93,-186.24 -81.63,-83.45 -167.99,-156.08 -249.35,-238.92 -199.59,-203.2 -268.88,-295.15 -506.04,-470.53 z"
     id="path57-3"
     style="clip-rule:evenodd;fill:#ff0000;fill-rule:evenodd;image-rendering:optimizeQuality;shape-rendering:geometricPrecision;text-rendering:geometricPrecision" /><path
     class="fil4"
     d="m 10473.429,6496.1549 c -65.08,3.272 -126.21,35.818 -174.6,80.048 -45.66,41.737 -93.61,72.276 -138.9,118.793 -78.6,80.719 -174.4695,191.274 -213.2595,296.45 -21.03,56.986 -55.29,111.373 -76.6,175.496 -61.57,185.288 -72.1,194.207 -112.45,394.634 -9.8,48.719 -3.44,201.861 -22.29,232.35 -12.62,-4.737 -3.62,-2.325 -15.99,-19.298 -15.85,-21.73 -46.29,-97.315 -55.53,-125.591 l -20.86,-54.008 c -11.05,-28.158 -62.58,-185.885 -66.39,-225.585 -2.96,-30.781 5.23,-74.728 -4.19,-103.449 -8.05,-24.577 -2,-13.867 2.28,-29.24 5.83,-20.984 1.6,-47.872 1.67,-70.084 0.09,-29.403 7.56,-31.45 7.98,-67.651 0.29,-24.838 3.13,-17.153 6.31,-29.587 3.25,-12.706 0.55,-20.475 2.9,-32.907 15.86,-84.009 30.71,-66.352 30.71,-192.392 -75.76,4.314 -90.2,75.195 -127.33,130.047 -33.17,48.998 -77.1,97.209 -109.33,147.582 -71.21,111.283 -114.04,240.476 -144.3,367.596 -58.98,247.75 -129.75,664.231 -37.76,900.2291 34.76,89.18 139.75,225.944 205.17,297.444 89.89,98.242 156.55,158.609 271.44,229.411 98.34,60.609 210.34,135.607 312.57,187.164 78.3995,39.526 259.1195,169.227 335.8895,167.197 6.32,-17.348 22.89,-46.416 31.75,-64.36 15.59,-31.582 28.95,-66.226 49.39,-94.806 l 36.18,-60.037 c 19.71,-28.601 37.8,-62.81 61.41,-87.064 58.09,-59.677 1.7,-107.655 -42.48,-194.877 -17.71,-34.951 -53.07,-95.656 -63.93,-128.879 l -60.41,-132.482 c -21.66,-42.738 -43.03,-84.702 -64.81,-127.966 -10.56,-20.9711 -23.97,-39.0971 -34.41,-59.9401 -19.95,-39.823 -15.86,-30.431 -15.86,-82.961 l 35.61,-36.772 c 87.25,20.493 319.25,206.2471 399.98,268.3221 31.6,24.304 63.01,48.894 94.52,73.32 31.57,24.476 58.8,59.925 91.03,80.443 74.13,47.18 158.18,-35.323 230.63,-67.399 75.6,-33.48 177.3,-66.499 256.96,-90.946 191.87,-58.874 397.54,-30.414 584.41,23.314 93.87,26.998 170.71,29.796 262.18,72.187 302.49,140.17 539.38,371.735 663.22,684.58 40.55,102.437 6.11,201.988 44.6,295.6 25.87,62.936 92.24,147.721 132.88,204.946 124.2,174.886 166.37,211.09 339.25,334.448 63.46,45.282 144.31,94.694 221.9,109.452 74.09,14.09 219.31,36.56 285.12,-6.891 39.79,-26.262 131.25,-134.041 171.28,-175.629 55.62,-57.791 110.49,-120.062 166.63,-179.107 60.72,-63.866 99.15,-128.712 154.67,-190.771 235.46,-263.197 313.6,-208.033 138.89,-706.223 -29.35,-83.704 -49.29,-176.876 -82.35,-256.832 -34.77,-84.06 -196.82,-346.0951 -254.5,-421.4691 -48.42,-63.28 -101.65,-123.422 -152.04,-185.279 -85.36,-104.783 -214.61,-278.895 -312.96,-361.444 -57.93,-48.638 -226.12,-175.11 -296.62,-207.515 -109.68,-50.42 -129.39,-49.288 -68.75,-141.002 43.76,-66.197 106.22,-122.859 161.3,-180.336 16.63,-17.36 15.76,-15.397 30.88,-25.486 22.36,-14.922 37.17,-39.453 100.73,-72.604 43.15,-22.492 30.81,-23.035 88.911,-24.562 39.29,-1.029 58.009,-17.634 98.929,-18.766 1.63,-45.463 -58.889,-69.843 -95.239,-80.841 -39.731,-12.03 -200.691,-60.253 -241.791,-61.356 -16.31,-0.439 -30.42,3.385 -46.02,-0.393 -53.59,-12.993 -119.64,-2.906 -176.47,-1.403 -108.63,2.873 -196.21,28.289 -299.61,65.484 -41.88,15.057 -95.94,27.397 -135.61,46.556 -25.99,12.558 -108.89,51.65 -132.24,53.818 7.17,-18.33 91.99,-138.473 108.98,-155.863 45.79,-46.861 89.56,-92.838 142.4,-127.286 56.51,-36.844 106.64,-76.13 163.97,-106.276 l 139.66,-62.464 c 16.34,-6.222 24.36,-23.344 24.36,-43.774 -84.69,-57.53 -299.27,-59.565 -408.73,-56.67 -201.37,5.315 -392.81,65.938 -572.75,160.707 -44.79,23.574 -110.67,64.837 -145.68,100.273 -37.82,38.28 -87.95,74.816 -126.82,114.674 -25.52,26.174 -104.25,106.417 -134.91,110.757 15.68,-36.494 18.78,-102.726 70.1,-205.643 31.53,-63.234 113.15,-201.223 160.03,-256.993 12.6,-14.993 11.54,-20.405 29.84,-38.419 17.94,-17.654 15.82,-24.638 31.55,-40.734 20.3,-20.767 48.65,-55.687 70.98,-69.807 55.99,-35.381 -2.29,-8.76 89.88,-51.407 -0.67,-27.773 -8.01,-2.749 -7.94,-39.49 -32.22,1.742 -26.78,-2.592 -52.11,-6.032 -13.59,-1.851 -43.54,0.431 -59.32,0.709 -53.95,0.956 -157,24.222 -209.23,42.363 -121.65,42.257 -322.14,123.919 -419.06,203.203 -47.65,38.97 -81.93,75.476 -125.36,120.065 -22.06,22.643 -39.18,49.076 -57.42,67.128 -15.6,15.443 -49.84,47.649 -60.16,64.471 -24.5,39.908 -88.97,93.973 -112.55,132.547 -17.04,27.901 -85.68,122.866 -111.14,137.879 0,-44.11 4.78,-57.876 8.11,-95.324 l 66.28,-253.023 c 31.38,-95.06 127.86,-301.872 197.52,-371.324 16.05,-15.994 13.22,-22.439 31.81,-40.471 11.57,-11.226 21.41,-36.056 21.68,-50.343 -121.84,3.142 -187.05,42.936 -293.65,99.066 -95.23,50.148 -265.8,166.749 -343.27,249.228 -136.62,145.463 -148.04,143.435 -261.33,329.041 -58.71,96.173 -113.88,226.922 -152.35,331.949 -4.75,12.956 -11.23,20.977 -15.72,32.366 -6.63,16.845 -1.73,21.376 -10.95,25.48 -16.04,7.124 -7.57,-3.3 -7.66,-3.418 -16.99,-22.861 -18.38,-117.354 -20.07,-123.589 -9.18,-33.687 -11.51,-149.446 -1.02,-183.293 5.67,-18.34 0.46,-29.842 3.21,-48.475 3.11,-21.062 7.38,-8.325 7.57,-40.26 0.19,-31.085 40.36,-210.768 52.72,-238.454 l 43.85,-104.17 c 9.36,-18.988 30.54,-46.188 30.42,-69.625 z"
     id="path59-6"
     style="clip-rule:evenodd;fill:#000000;fill-rule:evenodd;image-rendering:optimizeQuality;shape-rendering:geometricPrecision;text-rendering:geometricPrecision" /><path
     class="fil4"
     d="m 14109.219,13990.869 h -41.44 c -6.34,-1.53 -8.91,-6.33 -22.93,-19.85 11.66,-10.97 3.54,-12.87 16.22,-23.47 l 207.94,-121.47 c 15.47,-12.17 23.18,-23.7 32.83,-38.62 31.48,-48.7 20.79,-52.72 20.79,-122.11 -66.85,-20.8 -93.7,-22.7 -162.08,-32.38 -50.72,-7.17 -103.22,-26.23 -153.93,-36.55 -105.62,-21.5 -204.89,-52.64 -312.23,-68.75 -104.38,-15.67 -212.07,-44.88 -314.66,-70.29 -148.32,-36.72 -633.12,-167.81 -776.03,-180.38 -59.95,-5.27 -220.68,-16.2 -280.49,-8.04 -38.4,5.24 -46.6,8.14 -88.06,7.18 -48.98,-1.14 -113.36,8.78 -155.38,35.1 -90.74,56.83 -141.04,140.78 -265.07,100.05 0,-36.32 9.69,-25.12 35.75,-47.6 34.53,-29.77 115.04,-54.57 115.04,-135.01 -11,-4.31 -23.87,-14.8 -36.21,-15.94 -18.29,-1.69 -23.59,8.57 -37.84,13.32 -31.33,10.46 -45.55,-2.23 -74.83,28.36 l -47.66,55.53 c -24.53,32 -78.04,76.26 -112.97,93.41 -64.17,31.51 -138.6,55.53 -210.79,32.2 -21.99,-7.1 -19.4,-9.16 -19.38,-32.21 32.26,0.06 13.66,-4.35 36.2,-7.45 21.62,-2.98 16.61,0.77 38.16,-5.5 42.17,-12.27 22.48,2.71 63.58,-23.73 36.67,-23.58 60.47,-63.59 60.47,-110.2 -24.03,-23.16 -30.67,-32.79 -64.5,-21 -30.45,10.61 -39.8,14.72 -62.33,37.03 -16.08,15.93 -14.13,7 -30.06,21.54 -67.81,61.83 -74.92,90.01 -171.27,122.43 -22.19,7.47 -41.37,8.03 -64.21,11.18 -32.64,4.5 -61.57,24.2 -131.44,-20.33 0,-60.99 67.72,-57.27 114.23,-72.31 18.63,-6.03 49.06,-16.18 59.17,-32.11 9.5,-14.96 38.2,-47.54 17.76,-59.02 -13.35,-13.35 -50.22,-7.1 -76.21,-7.39 -40.81,-0.45 -63.8,13.97 -98.06,24.97 -32.89,10.56 -54.39,25.03 -83.24,35.82 -14.44,5.4 -16.48,4.33 -31.62,12.03 -46.25,23.52 -96.33,39.32 -146.02,52.68 -27.33,7.34 -44.79,-6.17 -57.6,-18.18 0,-27.45 27.56,-57.55 42.53,-80.52 13.37,-20.51 45.22,-45.68 52.71,-66.36 -13.07,-4.99 -20.38,-13.13 -36.22,-15.38 -76.48,-10.84 -22.88,-7.82 -63.57,-1.17 l -212.69,69.16 c -48.33,16.35 -133.31,31.37 -182.75,14.07 -28.23,-9.88 -128.14,-42.15 -143.66,-58.74 l -49.69,49.53 c -6.93,7.82 -10.14,14.73 -13.54,18.21 -21.57,22.06 -58.73,35.47 -85.69,13.76 -14.24,-11.46 -41.67,-54.72 -53.46,-73.57 -9.79,-15.65 -47.26,-63.26 -47.62,-79.39 -38.9795,0 -29.2995,1.52 -58.2195,-13.21 -43.06,-21.94 -53.34,-39.63 -84.63,-58.24 -18.59,-11.06 -20.76,-19.89 -35.47,-32.01 -26.71,-22.03 -70.24,-12.81 -109.53,2.08 -59.72,22.62 -98.07,130.66 -169.8,106.67 -26.83,-8.98 -62.6,-38.42 -75.63,-63.3 -15.19,-29.01 -31.98,-67.67 -39.85,-99.08 -30.35,-121.27 14.09,-252.6 -63.33,-357.42 -44,-59.57 -116.73,-72.21 -182.1,-95.72 -164.81,-59.27 -301.48,-25.88 -368.03,141.72 -60.49,152.37 -62.96,136.13 -37.16,287.44 2.41,14.13 0.81,16.64 4.55,31.67 4.89,19.65 -4.04,33.06 -14.04,47.06 -11.78,16.49 -0.78,6.27 -17.55,18.18 -19.9,14.12 -69.72,38.75 -94.9,44 -42.44,8.84 -85.54,9.68 -127.16,1.1 -25.01,-5.15 -31.05,-6.3 -38.25,-29.23 -43.48,-138.51 -70.73,-313.32 -246.83,-312.8 -82.8,0.24 -157.42,11.51 -223.72,54.08 -172.08,110.48 -50.13,311.47 -248.5,311.13 -7.51,-19.71 -4.03,4.47 -9.16,-22.6 -2.03,-10.74 -1.1,-15.13 -4.95,-26.8 -11.23,-34.09 -28.27,-88.62 -33.51,-139.64 v -54.54 c 2.94,-21.89 10.23,-40.84 23.9,-54.07 21.61,-20.92 33.93,-43.5 57.4,-65.63 108.21,-102.04 286.46,-290.31 454.64,-280.46 57.31,3.35 100.74,68.43 129.2,113.33 37.51,59.18 112.48,79.37 177.54,55.54 65.45,-23.98 69.88,-103.57 75.86,-166.35 6.72,-70.54 15.17,-150.51 25.79,-220.32 11.11,-72.96 49.13,-122 130.3,-115.19 55.82,4.68 120.06,61.18 176.59,70.4 60.27,9.82 156.8,-9.19 217.59,-22.04 188.85,-39.94 204.88,65.06 256.62,214.58 24.88,71.87 72.31,87.65 104.68,141.4 37.7,62.6 118.43,61.06 177.82,32.51 0,-71.69 -104.99,-67.04 -150.48,-99.55 -59.32,-42.41 -79.67,-95.85 -79.67,-170.39 47.63,0 95.34,15.62 141.66,25 16.93,3.43 7.9,6.75 36.66,7.07 30.45,0.35 73.52,-7.11 104.55,-19.04 l 85.07,-41.93 c 57.33,-37.2 84.44,-35.73 84.44,-121.95 -15.47,-5.69 -0.99,-1.67 -13.74,-6.11 l -36.43,-15.16 c -16.77,-5.87 -44.63,-2.55 -64.91,-2.55 -57.61,0.01 -74.57,0.75 -119.08,15.85 -30.16,10.23 -75.79,21.79 -97.19,41.71 -19.5,18.13 -57.53,44.83 -81.35,53.59 -6.63,-17.43 -25.96,-47.26 -24.17,-71.19 1.6,-21.3 2.42,-10.05 5.21,-19.2 21.95,-72.06 11.76,-39.96 53.56,-105.23 7.99,-12.48 33.52,-35.25 44.76,-46.53 31.24,-31.34 66.76,-53.03 108.37,-74.2 25.77,-13.1 42.65,-13.13 69.33,-21.94 8.69,-2.87 64.09,-20.25 68.33,-22.95 -1.77,-15.86 -6,-14.32 -18.18,-21.51 -113.04,-66.65 -49.44,-45.98 -215.94,-45.98 -57.73,0 -79.29,2.88 -133.1,17.71 -39.91,11 -59.74,37.87 -108.97,37.87 -18.03,-47.35 -15.87,-20.81 -15.87,-79.4 -25.25,-9.38 -18.1,-16.36 -55.34,-16.09 -75.78,0.56 -111.11,11.91 -154.98,55.79 -24.58,24.6 -47.88,47.62 -67.77,75.11 -9.57,13.24 -7.69,1.56 -8,27.73 l 0.38,103.59 c -14.2,-0.27 -25.67,-6.44 -32.09,-15.54 -7.66,-10.86 -5.5,-22.4 -8.79,-38.85 -3.69,-18.53 -6.18,-10.62 -6.64,-40.98 -0.54,-34.94 -6.35,-12.74 -8.39,-39.87 -2.3,-30.61 5.9,-13.01 8.32,-39.4 3.4,-37.22 0.87,-66.44 25.01,-113.92 39.25,-77.21 83.32,-132.17 162.83,-170.57 13.55,-6.54 21.84,-5.85 26.41,-17.24 l -76.86,-21.64 c -23.88,-2.81 5.98,0.31 -22.85,4.99 -32.79,5.34 -64.57,18.33 -90.45,36.81 -12.89,9.2 -23.92,22.08 -32.13,35.35 -11.89,19.23 -25.48,42.16 -30.58,64.67 -11.58,51.06 -43.76,94.28 -48.85,30.8 -4.28,-53.46 27.05,-142.54 50.35,-188.08 21.74,-42.49 44.19,-76.49 76.74,-109.81 l 50.37,-40.92 c 17.17,-11.28 45,-22.67 65.74,-29.51 45.59,-15.03 47.11,-6.76 66.46,-24.81 -26.86,-25.21 -68.91,-27.73 -119.05,-27.79 -192.65,-0.26 -211.45,124.93 -220.22,136.97 -6.68,9.15 -24.17,34.18 -33.74,37.7 0,-76.43 28.53,-135.75 59.42,-198.59 12.71,-25.86 41.27,-62.05 50.26,-76.75 14.26,-23.33 49.05,-52.35 49.05,-77.97 -15.21,-13.56 -111.53,-51.81 -139.96,-70.39 -42.83,-28 -86.82,-50.73 -130.58,-79.76 -103.73,-68.81 -232.12,-221.1 -300.8,-330.28 -54.92,-87.31 -107.09,-181.01 -139.95,-280.78 -10.45,-31.7 -59.92,-146.2 -27.49,-164.41 3.29,-3.29 -0.56,-13.53 36.18,-7.36 24.01,4.04 46.14,37.17 63.89,55.49 l 35.53,47.82 c 8.2,13.8 24.02,33.78 39.68,39.7 -9.12,-59.46 -50.96,-148.58 -70.88,-286.36 -8.38,-58 8.65,-115.94 7.45,-170.1 -1.01,-45.67 2.44,-117.73 12.8,-161.87 22.91,-97.6 35.59,-194.75 60.13,-293.15 54.68,-219.33 82.56,-336.67 155.25,-555.27 29.4,-88.41 67.6,-167.21 100.44,-252.83 16.87,-43.99 31.03,-85.73 48.58,-130.04 14.09,-35.53 40.11,-81.14 57.94,-116.7101 40.31,-80.48 70.66,-165.1 104.48,-248.78 h 39.69 c 34.15,45 88.13,242.65 115.52,309.2001 133.85,325.22 308.86,471.61 577.44,688.68 36.89,29.82 81.48,68.52 120.07,94.26 42.76,28.52 89.54,50.41 133.61,76.73 201.4695,120.33 221.6295,135.47 438.9795,196.01 70.52,19.64 250.86,77.83 315.52,105.16 22.43,9.48 54.76,21.37 77.96,29.19 50.14,16.88 14.67,25.15 78.04,25.15 -6.89,-18.08 -83.48,-131.57 -103.11,-154.89 -19.03,-22.6 -31.81,-17.29 -31.81,-51.54 27.1,-0.55 19.11,-21.67 55.08,4.43 22.14,16.07 22.72,19.39 56.03,19.39 -17.57,-131.19 -209.07,-450.28 -276.44,-584.89 -23.56,-47.05 -43.88,-105.25 -67.39,-150.92 -24.56,-47.71 -50.46,-94.21 -73.99,-140.35 -21.87,-42.9 -58.3,-90.74 -79.62,-134.71 -11.58,-23.86 -23.55,-47.93 -35.62,-71.5501 -6.69,-13.11 -12.48,-26.38 -17.45,-38.68 -14.19,-35.08 2.25,-6.33 2.89,-38.06 34.79,0.06 22.91,-17.77 52.29,-0.97 14.25,8.15 25.18,15.77 40.41,23.36 80.34,40.03 147.6,107.3101 218.84,162.1701 97.91,75.39 184.12,153.96 279.17,228.85 48.19,37.98 83.37,92.88 125.47,132.52 86.67,81.62 170.94,168.68 254.17,253.85 23.56,24.11 47.87,39.29 67.79,59.22 19.92,19.93 35.1,44.24 59.2,67.81 86.66,84.76 163.56,177.73 255.77,256.23 143.6,122.27 184.71,130.48 372.9,134.64 119.66,2.65 312.23,-31.6 413.72,-98.13 73.65,-48.27 191.4,-205.65 217.41,-290.64 h 39.68 c 36.79,65.75 65.04,155.5 95.3,226.21 33.52,78.32 62.32,140.4 101.73,215.82 66.79,127.85 152.21,279.14 259.35,375.71 48.91,44.08 124.06,99.4 178.17,143.31 50.57,41.03 138.21,94.78 198.27,119.23 94.19,38.34 156.67,62.85 261.94,54.26 126.58,-10.33 111.83,-60.08 187.29,-129.89 57.68,-53.36 110.03,-98.77 166.36,-155.13 158.93,-158.96 301.69,-333.36 448.9,-503.66 97.81,-113.16 198.32,-226.35 294.18,-340.87 47.77,-57.06 97.65,-114.81 146.42,-171.1 20.42,-23.57 136.39,-172.62 142.25,-175.28 21.76,20.36 3.08,90.74 -2.46,120.6 -7.07,38.12 -12.02,85.18 -20.4,122.51 -17.72,78.96 -30.46,159.57 -46.41,239.38 -31.33,156.71 -64.31,313.82 -102.86,468.75 -37.5,150.65 -106.72,393.43 -178.56,535.92 -32.41,64.28 -43.62,144.67 -76.23,209.56 -10.44,20.76 -59.6,74.45 -61.18,81.71 5.35,18.67 75.36,103.13 95.24,123.07 92.18,92.42 179.08,186.21 285.19,262.52 16.17,11.63 44.44,38.81 58.98,48.18 35.14,22.66 200.51,166.01 237.01,199.58 47.92,44.06 125.54,85.63 182.88,142.56 23.48,23.31 29.41,45.12 29.59,76.1 v 1.48 c -14.39,21.38 -97.46,74.18 -126.96,103.24 -47.19,46.52 -57.67,113.7 -41.64,176.57 5.79,22.68 6.19,80.14 12.77,102.35 6.1,20.57 12.78,79.53 12.63,102.49 -0.17,25.56 7.93,27.2 8.65,50.89 1.48,48.38 3.93,249.93 -4.16,278.44 -10.58,37.27 -23.88,53.54 -33.04,82.07 -18.58,57.87 -26.83,112.52 -61.65,164.59 -42.61,63.73 -62.94,68.74 -111.85,118.36 -36.06,36.57 -104.06,73.14 -154.75,71.47 l 40.9,-133.76 c 9.74,-42.7 31.85,-76.37 7.04,-148.42 -11.98,-34.81 -38.27,-35.4 -79.69,-35.4 l -21.04,50.4 c -24.88,56.08 -52.92,74.54 -95.99,118.34 l -79.65,63.24 c -9.87,6.93 -12.18,7.37 -21.54,14.17 -17.6,12.79 -51.7,31.21 -75.43,31.73 0.31,-14.47 27.93,-81.77 31.92,-126.86 2.53,-28.59 2.33,-4.13 6.58,-25.18 2.6,-12.88 0.54,-15.48 4.12,-27.64 18.76,-63.66 0.13,-167.74 -46.58,-217.29 -17.06,18.18 -39.79,71.03 -52.89,97.94 -14.41,29.61 -15.33,21 -32.33,43.08 -15.58,20.25 -11.27,21.43 -34.94,36.51 -9.78,6.23 -12.26,11.37 -20.59,19.1 -14.07,13.04 -9.56,5.67 -21.51,14.2 -35.28,25.18 -91.68,81.97 -135.36,82.93 -0.01,-10.19 7.94,-44.62 10.69,-52.82 l 17.37,-42.17 c 7.5,-22.82 7.61,-87.01 3.33,-115.06 -3.56,-23.4 -6.88,-11.57 -7.35,-52.19 -0.32,-28.75 -24.18,-113.79 -43.88,-134.74 -24.64,26.43 -24.54,98.83 -77.11,172.96 -58.3,82.2 -30.94,47.55 -97.54,104.89 -14.94,12.86 -8.78,3.08 -23.73,15.95 -25.51,21.96 -68.94,55.56 -107.18,55.54 0,-17.91 -1.65,-38.61 2.65,-52.93 4.56,-15.17 10,-26.27 13.22,-42.34 3.23,-16.07 8.61,-27.27 13.02,-42.56 l 18.77,-92.37 c 1.49,-15.18 -0.11,-39.39 -0.02,-55.64 0.14,-26.07 1.71,-28.73 -5.1,-50.48 -4.57,-14.61 -2.86,-34.14 -2.86,-52.71 h -39.68 c 0.01,19.09 -27.04,104.66 -37.8,120.98 l -15,24.68 c -8.56,17.71 -24.43,27.84 -34.5,44.88 -18.14,30.71 -37.14,36.6 -59.59,55.52 -6.21,5.24 -13.68,14.35 -19.59,20.09 l -45.08,34.3 c -33.85,20.13 -46.24,25.06 -90.03,25.06 0,-33.66 25.77,-118.05 31.4,-155.17 7.05,-46.52 -6.48,-61.88 -7.83,-86.74 -1.53,-28.14 0.24,-62.65 0.24,-91.54 -15.8,-0.03 -54.12,10.89 -67.88,15.45 -22.26,7.38 -23.82,25.47 -31.33,48.06 -11.59,34.88 -15.78,53.83 -39.68,79.4 -16.63,17.8 -52.71,75.74 -99.2,103.21 -27.58,16.3 -59.31,62.73 -95.24,63.52 0,-43.49 22.09,-77.82 21.87,-103.2 -0.17,-20.42 0.14,6.53 -4.79,-16.68 -3.58,-16.86 0.96,-27.32 -4.05,-44.01 -8.52,-28.37 -8.17,-55.14 -16.74,-82.49 -5.86,-18.67 -27.75,-58.07 -28.04,-71.2 -26.67,0.05 -38.3,-18.49 -48.29,-0.68 -14.27,8.01 -4.1,2.43 -8.63,23.12 -4.62,21.05 -14.87,47.84 -28.61,66.66 -33.1,45.36 -3.66,17.77 -53.53,69.51 -20.54,21.3 -2,16.92 -30.05,33.46 -24.01,14.16 -65.53,69.97 -116.6,69.93 l 14.89,-72.44 c 2.89,-13.76 -0.81,-28.42 1.38,-42.36 3.85,-24.58 11.9,-2.88 5.95,-30.01 -2.97,-13.53 -7,-8.35 -6.49,-37.66 0.5,-28.49 -3.96,-47.92 -12.62,-74.71 -3.83,-11.87 -7.1,-18.29 -11.05,-28.64 -18.74,0 -41.59,1.23 -59.77,0.25 -14.14,-0.77 -18.38,-4.47 -25.39,-6.36 -9.99,-2.69 -15.2,-1.83 -25.95,-1.83 -1.1,49.75 -48.44,89.14 -70,124.49 -16.81,27.55 -26.19,31.29 -50.77,48.45 -30.09,21.02 -29.72,25.55 -69.7,25.55 0,-21.26 0.05,-42.48 0.21,-63.73 0.26,-35.64 -8.04,-25.71 -8.39,-55.13 -0.12,-10.29 1.35,-20.97 -0.74,-31.01 -3.98,-19.1 -3.47,1.86 -6.67,-25.09 -3.89,-32.7 -6.96,-23.21 -16.16,-47.35 -18.53,0 -57.37,7.23 -63.49,-7.94 h -39.68 c -0.43,19.2 -17.67,44.42 -29.76,57.57 -13.79,15.02 -5.88,11.69 -17.8,25.86 -29.17,34.67 -78.12,83.39 -127.05,83.3 0,-56.43 -0.13,-96.26 -18.08,-144.93 -10.57,-28.65 -6.92,-13.45 2.21,-37.68 -18.32,0 -46.43,1.73 -63.53,0.05 -24.84,-2.44 -22.1,-7.99 -51.55,-7.99 l -33.57,41.85 c -24.16,24.1 -97.64,110.11 -129.81,77.93 -13.54,-7.61 -5.73,-20.75 -7.29,-40.34 -1.5,-18.71 -4.92,-13.58 -8.17,-39.47 -3.1,-24.75 -15.65,-52.41 -15.6,-79.66 -34.12,0.06 -28.46,-15.88 -126.99,-15.88 0.07,34.76 -22.65,61.88 -41.35,85.66 l -32.85,30.66 c -58.65,39.19 -53.89,-27.05 -54.02,-27.75 -3.55,-18.67 -5.01,-0.43 -6.66,-29.07 -1.47,-25.54 -1.52,-17.56 -5.76,-33.93 -5.24,-20.22 4.27,-18.54 -9.47,-26.25 -15.11,-15.12 -60.88,-5.77 -84.26,-7.02 l -413.54,-90.45 c -37.23,-11.31 -89.67,-5.06 -129.86,-5.06 0.58,25.52 0.67,6.73 23.8,27.79 12.71,11.57 13.58,11.03 29.08,18.55 21.49,10.42 45.25,24.96 67.08,32.14 112.3,36.91 248.27,127.63 406.82,180.54 26.18,8.74 207.5,62.92 231.69,65.96 l 163.55,30.9 c 22.77,5.67 56.52,19.61 77.82,17.61 55.29,-5.19 83,-85.08 99.36,-95.61 16.54,-4.87 36.83,14.79 45.24,26.2 0.7,0.95 3.06,4.66 4.79,7.11 22.63,32.03 33.3,58.22 33.3,105.63 10.12,9.75 10.94,15.32 24.72,18.94 34.31,9.02 70.75,16.78 106.24,16.78 16.8,-17.44 58.92,-75.92 59.52,-103.21 37.6,0 70.7,20.99 83.58,55.33 13.7,36.5 19.6,78.04 19.6,119.34 33.67,0 23.42,4.61 47.88,7.67 80.67,10.09 134.91,49.64 178.3,-55.31 5.32,-12.88 9.38,-27.36 12.34,-43.24 5.17,-27.8 6.42,-27.84 23.38,-28.21 7.17,17.78 10.92,0.93 31.54,12.11 40.26,21.82 46.83,101.32 58.76,143.67 7,24.86 4.29,43.41 25.45,53.95 26.01,12.94 48.42,2.18 66.93,-7.14 28.88,-14.55 24.58,-14.98 38.09,-41.29 7.96,-15.52 9.74,-12.5 17.44,-26.22 l 39.57,-79.51 c 19.76,7.54 35.77,10.27 46.42,28.99 12.17,21.38 16.57,28.98 16.97,58.44 0.39,28.57 3.39,15.45 7.06,32.65 2.34,10.98 1.1,23.53 0.88,34.84 -0.71,36.9 8.03,32.11 8.03,67.39 43.44,-0.08 75.4,33.17 131.06,-23.72 41.64,-42.56 29.64,-34.16 51.52,-59.61 31.78,-36.96 33.16,-47.53 75.36,-91.34 53.69,5.94 52.19,69.36 61.39,105.31 12.88,50.33 14,86.19 14,148.75 8.32,3.17 22.29,12.06 29.62,14.04 20.14,5.45 17.29,3.71 33.88,9.78 13.24,-35.1 61.78,-74.05 87.4,-99.14 27.06,-26.49 55.45,-85.98 55.45,-131.1 25.28,0 23.11,-4.77 38.08,9.55 29.85,28.57 41.86,55.27 41.36,101.53 -0.34,31.73 -0.06,63.59 -0.07,95.34 -0.03,71.32 7.98,61.63 7.94,87.34 22.85,0.5 23.01,14.86 51.3,16.15 23.1,1.06 45.12,1.1 62.99,-5.03 53.55,-18.36 65.13,-32.85 93.84,-72.85 14.82,-20.66 21.69,-45.04 30,-69.24 6.91,-20.17 6.28,-35.62 12.67,-54.81 l 19.04,-44.47 c 53.23,0 77.45,37.46 92.47,82.16 8.26,24.55 18.85,73.01 18.92,96.2 0.04,15.05 -2.02,41.79 0.07,55.51 4.04,26.52 3.19,-2.01 7.23,24.51 4.05,26.5 0.35,56.38 0.35,83.02 32.83,12.51 47.47,26.08 77.55,-1.82 44.48,-41.27 65.39,-90.42 65.06,-153.25 -0.17,-33.55 6.5,-18.88 8.15,-47.43 1.71,-29.57 7.58,-25.82 7.97,-43.62 30.28,0 53.97,18.61 68.24,38.91 57.26,81.43 52.53,189.94 78.59,231.03 42.05,0 78.32,-41.31 94.17,-76.49 7.61,-16.89 14.95,-44.39 20.91,-62.45 7.64,-23.17 15.87,-38.23 15.87,-67.49 94.79,5.83 93.81,140.1 113.26,208.25 15.21,53.28 129.61,97.62 88.52,223.85 -54.54,167.56 -109.39,283.52 -227.55,415.46 -122.97,137.33 -153.81,220.64 -333.81,309.16 -73.55,36.17 -148.19,68.57 -225.64,95.82 -38.29,13.48 -144.47,39.78 -191.68,41.59 z m -2148.4,-2997.72 c 42.02,-2.08 142.01,5.24 171.69,32.34 -29.42,70.21 -96.04,167.7 -179.07,172.53 z m -41.79,-4.31 0.3,205.24 c -88.02,-9.67 -205.15,-151.83 -212.98,-237.98 70.51,-1.81 144.94,18.26 212.68,32.74 z m -319.77,-47.84 c 75.86,-1.31 44.16,37.15 117.83,142.68 36.89,52.84 74.1,94.2 131.6,125.7 157.94,86.54 248.14,-31.47 309.32,-157.92 35.1,3.03 178.2,160.8 186.08,180.45 -40.41,37.07 -166.11,80.6 -220.94,95.1 -92.1,24.34 -184.74,20.81 -276.99,-2.54 -94.52,-23.93 -108.5,-90.58 -146.45,-168.56 -34.24,-70.35 -76.93,-139.63 -100.45,-214.91 z m -3109.9595,-618.15 9.53,6.35 -3.18,3.17 z m 414.92,247.38 c -54.44,-1.64 -86.88,-16.14 -132.46,-45.36 -15.39,-9.87 -36.79,-32.15 -49.52,-37.51 -26.21,-11.05 -30.69,-4.99 -58.87,-24.79 -88.08,-61.9 -103.4,-102.67 -141.14,-201.1 -39.94,-104.13 -51.67,-175.99 -52.97,-287.94 -0.62,-52.87 0.86,-295.17 18.24,-320.92 15.69,17.24 26.01,103.12 35.82,132.55 76.89,230.55 133.39,362.24 257.37,576.06 22.62,39.02 117.12,179.08 123.53,209.01 z m -417.04,-924.11 c 1.94,-30.04 74.8,-346.86 87.9,-407.46 33.53,-155.13 180.49,-581.71 248.52,-732.5 25.52,-56.54 58.07,-107.11 80.28,-165.6201 11.17,-29.45 60.39,-149.01 77.49,-166.34 33.07,28.42 60.79,151.8 79.14,200.3601 84.3,223.15 165.83,329.66 317.49,507.58 86.04,100.95 191.33,176.07 295.56,255.81 175.68,134.4 141.43,108.9 333.5795,217.9 142.05,80.59 236.98,117.66 396.05,155.06 130.27,30.64 270.24,109.18 401.4,150.39 112.17,35.24 97.81,13.23 161.89,117.03 46.51,75.33 141.26,286.76 177.88,374.09 32.91,78.45 57.22,137.83 16.35,218.91 -65.18,8.31 -104.01,-37.67 -151.88,-75.89 -124.98,-99.8 -128.14,-111.26 -229.3,-223.44 -27.15,-30.1 -76.89,-109 -115.65,-110.08 1.83,56.31 50.87,108.42 79.07,155.16 116.77,193.57 -69.01,241.29 -316.09,6.22 -75.92,-72.23 -161.36,-156.15 -229.07,-235.3 -32.48,-37.97 -83.81,-75.43 -120.6,-113.68 -23.04,-23.96 -93.0195,-107.09 -127.1195,-93.7 -21.13,26.24 32.97,85.35 49.14,108.57 62.7495,90.12 156.6995,238.25 188.8895,335.33 109.13,329.22 -104.24,286.17 -319.3195,184.45 -254.51,-120.37 -223.46,-133.22 -422.14,-276.66 -116.79,-84.31 -254.81,-267.01 -385.94,-308.43 4.83,54.63 67.75,113.59 104.45,153.18 36.55,39.43 77.25,100.92 107.68,146.58 69.14,103.75 171.42,215.74 170.22,344.91 -68.93,39.67 -84.95,30.88 -148.87,-17.05 -84.95,-63.69 -166.8,-113.84 -246.94,-185.73 -36.83,-33.02 -83.93,-67.13 -116.65,-97.8 -102.99,-96.5 -211.25,-230.62 -315.56,-335.21 -39.57,-39.68 -67.04,-87.2 -127.85,-86.64 z m 5456.6295,682.4 c 21.57,-61.61 103,-121.93 150.81,-166.28 113.31,-105.12 344.41,-370.7 440.93,-487.7 94.15,-114.12 199.85,-215.15 294.85,-328.31 47.75,-56.89 100.26,-105.74 148.25,-161.35 37.39,-43.34 93.56,-149.62 140.58,-174.89 -3.36,80.19 -22.64,151.53 -37.25,229.38 -36.39,193.76 -73.57,473.2 -133.07,649.54 -55.25,163.74 -200.75,622.35 -296.92,744.53 -43.27,-19.52 -121.2,-145.46 -144.36,-190.48 -26.5,-51.51 -68.62,-247.13 -74.74,-253.73 -38.64,-13.67 -171.15,73 -218.45,89.73 -78.59,27.79 -187.41,44.18 -270.63,49.56 z m -3591.68,-1983.9301 c 67.72,22.48 207.95,157.9501 277.91,209.6801 237.16,175.38 306.45,267.33 506.04,470.53 81.36,82.84 167.72,155.47 249.35,238.92 59.51,60.85 114.75,125.76 174.93,186.24 29.47,29.61 27.7,54.09 47.54,75.48 31.84,34.31 113.67,56.58 156.11,85.67 40.17,27.54 92.34,82.79 127.92,118.41 88.98,89.1 148.59,164.76 226.28,262.07 26.06,32.64 206.46,254.99 221.4,260.03 22.5,-46.39 -63.99,-130.58 -91.97,-167.6 -78.39,-103.71 -160.42,-210.78 -256.5,-298.92 -37.83,-34.71 -120.22,-101.32 -131.02,-150.43 96.75,3.67 179.28,22.8 279.08,7.56 54.84,-8.38 178.32,-42.35 228.18,-65.22 211.02,-96.81 252.72,-263.2 304.46,-287.98 23.75,41.13 33.07,94.16 50.64,138.2 50.49,126.57 124.02,248.44 196.11,363.28 66.76,106.34 229.25,358.2 333.88,415.54 38.85,21.29 86,38.93 126.86,59.57 149.6,75.56 246.83,148.7 428.17,116.51 107.02,-19 217.03,-30.15 322.04,-50.94 116.01,-22.96 174.33,-73.83 274.12,-105.15 58.77,177.17 65.53,250.1 190.46,401.02 87.48,105.69 189.27,211.34 285.13,310.05 58.28,60.02 95.61,84.37 159.94,133.5 55.43,42.33 105.09,95.2 160.23,137.53 53.51,41.07 295.76,234.12 324.18,273.87 -69.08,79.85 -159.91,111.92 -168.8,220.62 -4.44,54.26 11.62,116.88 17.69,171.75 12.31,111.36 57.77,437.22 -31.18,502.89 -77,56.86 -242.2,38.81 -327.8,9.62 -89.47,-30.51 -195.82,-67.43 -280.26,-108.4 -86.35,-41.9 -166.31,-112.38 -257.77,-134.81 -97.16,-23.83 -270.53,-14.92 -375.13,-14.24 -130.67,0.84 -261.08,3.01 -391.75,0.33 -245.96,-5.06 -486.75,-43.94 -729.56,-52.4 -117.83,-4.11 -233.89,-22.61 -353.06,-28.46 -105.23,-5.17 -256.5,-11.92 -356.63,-36.52 -152.31,-37.42 -180.8,-48.1 -344.08,-44.7 -140.49,2.92 -204.04,-26.46 -333.53,-59.42 -61.93,-15.76 -284.79,-78.72 -309.27,7.94 -13.6,48.18 50.41,83.09 86.61,96.62 50.83,19.01 90.74,32.03 141.2,55.02 89.07,40.58 172.5,90.85 265.44,123.33 95.65,33.43 205.73,62.32 304.16,88.59 202.22,53.97 412.9,104.63 610.71,171.11 102.42,34.42 204.02,54.18 308.2,80.69 412.99,105.09 821.98,222.58 1232.98,334.67 100.26,27.34 213.74,67.09 316.08,76.51 164.81,15.17 632.79,-73.61 477.5,233.79 -46.95,92.94 -70.4,169.31 -136.69,253.01 -55.57,70.18 -113.8,157.73 -171.55,221.48 -119.02,131.39 -345.5,245.42 -519.19,270.2 43.12,-35.61 82.08,-44.14 126.47,-91.31 40.78,-43.34 65.45,-98.95 47.46,-158.97 -18.86,-62.92 -90.42,-65.05 -144.66,-71.61 -62.49,-7.56 -125.38,-18.51 -186.91,-31.78 -117,-25.23 -231.07,-59.72 -348.83,-83.42 -178.61,-35.94 -351.78,-87.2 -530.56,-120.32 -30.82,-5.71 -51.82,-16.72 -80.48,-26.98 -48.99,-17.54 -378.39,-81.12 -450.64,-96.85 -89.87,-19.57 -324.34,-14.71 -418.89,-2.59 -168,21.55 -206.13,113.99 -294.08,142.73 11.01,-20.24 51.74,-46.72 70.75,-81.37 18.54,-33.8 29.81,-82.07 5.72,-115.45 -43.09,-2.17 -86.16,-2.37 -128.19,5.53 -49.35,9.28 -52.52,21.07 -83.52,54.34 -19.51,20.94 -131.41,123.31 -151.85,131.29 8.34,-44.7 33.13,-86.21 32.86,-137.85 -69.08,-66.19 -153.81,-40.78 -213.78,19.16 -59.48,59.45 -98.69,113.59 -191.71,125.07 17.48,-42.19 92.75,-69.34 78.89,-130.5 -12.07,-53.28 -103.1,-63.39 -147.46,-59.01 -45.58,4.5 -112.37,34.53 -153.82,55.35 -68.15,34.23 -68.38,62.09 -155.02,63.53 15.25,-40.69 104.81,-84.48 28.44,-147.17 -85.81,-70.44 -274.81,33.4 -363.29,62.15 -51.2,16.64 -149.46,17.55 -180.87,-32.24 19.03,-32.79 211.27,-192.58 -161.12,-111.04 -111.63,24.44 -102.47,34.66 -223.1795,9.85 12.77,-23.39 100.6695,-42.33 138.4895,-79.56 41.05,-40.4 62.29,-101.3 -0.33,-134.01 -80.73,-42.16 -327.4295,68.69 -371.3895,-16.7 55.55,-0.64 75.86,14.08 130.62,-11.66 36.93,-17.36 63.22,-46.65 52.59,-90.6 -26.45,-109.32 -156.97,-66.32 -210.64,-93.3 -17.42,-33.05 49.01,-47.74 67.54,-64.47 0.57,-88.33 -32.92,-96.42 -99.5,-129.85 -35.98,-18.06 -119.6,-71.34 -126.67,-108.43 116.09,-1.09 145.82,43.41 273.51,-16.94 56.81,-26.85 161.64,-83.11 165.36,-153.94 6.0895,-116.07 -135.07,-108.27 -215.06,-100.76 -118.59,11.13 -149.01,77.93 -229.27,94.36 5.38,-77.67 80.55,-152.47 139.72,-197.06 42.23,-31.83 69.56,-36.79 120.4,-47.18 34.23,-7 114.68,-8.52 112.82,-54.25 -3.06,-75.25 -154.07,-118.6 -212.34,-119.43 -193.09,-2.75 -195.76,35.94 -294.97,45.7 16.53,-125.36 123.86,-208.15 235.07,-253.31 63.35,-25.73 142.84,-26.33 207.24,-4.36 54.11,18.45 127.58,76.37 160.5795,82.74 53.61,-55.35 -47.6995,-177.15 -93.8995,-211.86 -72.57,-54.53 -164.27,-60.15 -248.2,-85.6 23.5,-126.1 420.8895,-57.83 515.8695,-8.18 20.47,10.7 117.67,82.63 132.5,72.15 33.36,-54.96 -87.01,-186.56 -121.36,-229.91 -62.3,-78.66 -182.53,-88.69 -231.2095,-133.99 41.9695,-30.1 211.9095,-36.58 266.2995,-33.55 168.07,9.34 281.51,86.79 404.23,192.57 24.63,21.23 57.05,49.04 78.13,72.89 17.01,19.25 50.19,69.2 70.23,79.57 12.31,-4.92 22.44,-23.76 35.78,-32.71 60.01,-40.25 82.75,-49.02 143.24,-83.08 69.11,-38.91 119.14,-71.85 193.89,-103.91 75.01,-32.17 156.64,-42.67 235.26,-62.65 65.3,-16.59 180.59,-54.85 218.98,28.03 74.89,161.65 117.21,263.15 311.98,281.67 72.91,6.93 185.14,-17.61 256.54,-37.85 35.72,-10.12 193.53,-65.26 216.89,-82.65 -6.33,-29.56 -96.28,-111.23 -108.28,-145.07 178.55,8.19 448.12,104.11 626.03,155.72 147.65,42.82 297.81,81.16 440.13,143.42 33.95,14.86 92.9,62.07 124.97,66.45 4.72,-57 -88.83,-123.11 -129.17,-160.91 -84.11,-78.81 -227.03,-216.06 -319.89,-275.18 -41.96,-26.73 -60.26,-27.01 -104.12,-42.23 -35.87,-12.45 -70.89,-33.15 -106.03,-44.68 -128.99,-42.33 -346.51,-90.15 -481.68,-113.38 -39.89,-6.86 -209.97,-41.84 -227.68,-71.4 -29.38,-49.04 -75.5,-145.27 -129.58,-166.12 -45.6,38.82 -55.51,66.9 -126.85,68.85 -119.18,3.26 -198.17,-109.59 -155.07,-220.94 33.24,-85.88 51.84,-50.89 109.69,-87.72 -10.38,-60.47 -272.49,-343.91 -328.95,-411.82 -84.39,-101.51 -169.17,-203.99 -238.99,-316.8 -20.36,-32.91 -49.08,-94.68 -96.07,-79.86 3.94,54.79 125.35,129.55 103.81,254.52 -68.18,-3.9 -133.06,-71.46 -186.03,-110.94 -60.41,-45.03 -119.33,-75.8 -149.84,-148.64 -28.97,-69.14 -54.76,-141.52 -82.92,-210.81 -26.48,-65.16 -66.04,-136.21 -96.9,-200.77 -63.55,-132.91 -129.1,-265.3 -193.51,-397.82 -41.26,-84.89 -186.92,-330.73 -199.51,-398.9801 z"
     id="path61-0"
     sodipodi:nodetypes="cccccccccscsscccccscccscccsccsccsscccccsssccsccccsccccsccscccscsscsssccccccccccccccscscscccscccscccccccsccccsccsccsscccccccsccsccscccscccscccccccscccsscccccccsscssccccscscsscccccccscccccsccccssccccccscscssscccscscccscccsccscccccscsscccccccccscssccscscscccccccssccccccsccccccccccscsccsccssccccccscccsccccscccccsscccccscscsccccccccccssccccsccsccscscccccccsccccsccccccssccsscsccccccsccccccccccsccccscccsccsscscccccccccccscccccsccccccscccccccccccccccsccscccccccssccccsccssccccsccccccccscscccccccccccscccccccccscsccccsccsccsssccccscsccsssssssscscsssscsssccscssccscssscsscsccccscccccscccccssccccccsccccssccssccsccccccscsccscsscccccccscsc"
     style="clip-rule:evenodd;fill:#000000;fill-rule:evenodd;image-rendering:optimizeQuality;shape-rendering:geometricPrecision;text-rendering:geometricPrecision" /><path
     class="fil3"
     d="m 8487.1795,9646.119 c 60.81,-0.56 88.28,46.96 127.85,86.64 104.31,104.59 212.57,238.71 315.56,335.21 32.72,30.67 79.82,64.78 116.65,97.8 80.14,71.89 161.99,122.04 246.94,185.73 63.92,47.93 79.94,56.72 148.87,17.05 1.2,-129.17 -101.08,-241.16 -170.22,-344.91 -30.43,-45.66 -71.13,-107.15 -107.68,-146.58 -36.7,-39.59 -99.62,-98.55 -104.45,-153.18 131.13,41.42 269.15,224.12 385.94,308.43 198.68,143.44 167.63,156.29 422.14,276.66 215.0795,101.72 428.4495,144.77 319.3195,-184.45 -32.19,-97.08 -126.14,-245.21 -188.8895,-335.33 -16.17,-23.22 -70.27,-82.33 -49.14,-108.57 34.1,-13.39 104.0795,69.74 127.1195,93.7 36.79,38.25 88.12,75.71 120.6,113.68 67.71,79.15 153.15,163.07 229.07,235.3 247.08,235.07 432.86,187.35 316.09,-6.22 -28.2,-46.74 -77.24,-98.85 -79.07,-155.16 38.76,1.08 88.5,79.98 115.65,110.08 101.16,112.18 104.32,123.64 229.3,223.44 47.87,38.22 86.7,84.2 151.88,75.89 40.87,-81.08 16.56,-140.46 -16.35,-218.91 -36.62,-87.33 -131.37,-298.76 -177.88,-374.09 -64.08,-103.8 -49.72,-81.79 -161.89,-117.03 -131.16,-41.21 -271.13,-119.75 -401.4,-150.39 -159.07,-37.4 -254,-74.47 -396.05,-155.06 -192.1495,-109 -157.8995,-83.5 -333.5795,-217.9 -104.23,-79.74 -209.52,-154.86 -295.56,-255.81 -151.66,-177.92 -233.19,-284.43 -317.49,-507.58 -18.35,-48.5601 -46.07,-171.9401 -79.14,-200.3601 -17.1,17.33 -66.32,136.89 -77.49,166.34 -22.21,58.5101 -54.76,109.0801 -80.28,165.6201 -68.03,150.79 -214.99,577.37 -248.52,732.5 -13.1,60.6 -85.96,377.42 -87.9,407.46 z"
     id="path63-6"
     style="clip-rule:evenodd;fill:#ff0000;fill-rule:evenodd;image-rendering:optimizeQuality;shape-rendering:geometricPrecision;text-rendering:geometricPrecision" /><path
     class="fil3"
     d="m 13943.809,10328.519 c 83.22,-5.38 192.04,-21.77 270.63,-49.56 47.3,-16.73 179.81,-103.4 218.45,-89.73 6.12,6.6 48.24,202.22 74.74,253.73 23.16,45.02 101.09,170.96 144.36,190.48 96.17,-122.18 241.67,-580.79 296.92,-744.53 59.5,-176.34 96.68,-455.78 133.07,-649.54 14.61,-77.85 33.89,-149.19 37.25,-229.38 -47.02,25.27 -103.19,131.55 -140.58,174.89 -47.99,55.61 -100.5,104.46 -148.25,161.35 -95,113.16 -200.7,214.19 -294.85,328.31 -96.52,117 -327.62,382.58 -440.93,487.7 -47.81,44.35 -129.24,104.67 -150.81,166.28 z"
     id="path65-2"
     style="clip-rule:evenodd;fill:#800000;fill-rule:evenodd;image-rendering:optimizeQuality;shape-rendering:geometricPrecision;text-rendering:geometricPrecision" /><path
     class="fil4"
     d="m 8854.3795,13760.629 c 44.85,3.37 112.03,-44.58 142.84,-75.45 17.83,-17.88 35.73,-35.71 53.59,-53.57 79.65,-79.61 178.32,-223.33 228.17,-323.54 73.63,-148.05 143.89,-368.21 64.94,-521.47 -24.74,-48.02 -47.69,-95.37 -95.68,-126.59 -50.43,-32.81 -85.85,-66.8 -152.1,-66.18 -30.57,0.29 -20.27,-10.56 -42.31,-7.42 -48.23,6.88 -73.54,27.98 -106.35,60.55 -77.63,77.05 -44.71,354.15 -20.57,477.41 5.03,25.72 6.2,16.96 6.58,49 0.31,26.39 8.04,20.65 8.52,47.05 0.73,39.93 7.29,59.51 7.3,99.88 0.01,28.68 7.15,23.25 8.51,47.06 0.96,16.88 -0.4,38.32 -0.23,55.87 0.6,65.75 -15.75,124.81 -34.75,183.58 -16.09,49.8 -64.82,98.95 -68.46,153.82 z"
     id="path67-6"
     style="clip-rule:evenodd;fill:#000000;fill-rule:evenodd;image-rendering:optimizeQuality;shape-rendering:geometricPrecision;text-rendering:geometricPrecision" /><path
     class="fil4"
     d="m 8576.6095,13832.079 -86.28,-334.49 c -25.62,-75.25 -55.02,-175.05 -64.78,-252.76 -2.83,-22.52 -6.02,-14.66 -7.7,-43.91 -1.74,-30.07 -8.23,-9.28 -7.7,-99.48 0.14,-23.46 -6.94,-34.24 -5.97,-41.94 9.4,-74.67 15.77,-139.6 -41.8,-208 -8.02,-9.54 -19.37,-20.77 -29.07,-26.49 -35.81,-21.14 -35.91,-15.2 -58.17,-17.35 -27.26,-2.64 -7.72,-3.78 -21.7,-5.59 -15.08,-1.95 -66.61,13.02 -84.59,18.7 -97.2,30.74 -181.25,111.05 -213.36,211.33 -19.05,59.51 -35.09,111.82 -22.91,173.92 3.9,19.91 -1.61,23.48 4.88,46.74 12.68,45.41 17.71,68.43 45.33,113.44 33.04,53.84 59.67,71.19 105.75,108.57 l 113.28,97.08 c 44.84,33.64 69.82,69.39 108.91,101.44 67.67,55.48 186.71,124.1 265.88,158.79 z"
     id="path69-1"
     style="clip-rule:evenodd;fill:#000000;fill-rule:evenodd;image-rendering:optimizeQuality;shape-rendering:geometricPrecision;text-rendering:geometricPrecision" /><path
     class="fil4"
     d="m 9727.3995,13113.559 c -61.01,16.43 -66.43,49.09 -80.89,105.66 -33.23,130.07 -70.63,160.34 -112.1,261.01 -31.05,75.36 -76.86,184.77 -136.39,240.68 -23.14,21.73 -74.55,72.17 -97.71,88.83 -67.18,48.32 -76.2,100.45 -14.02,69 45.15,-22.83 89.29,-23.64 135.49,-54.66 72.34,-48.58 158.3,-92.41 228.72,-144.35 71.26,-52.57 135.15,-116.32 197.93,-179.12 66.39,-66.41 150.96,-139.4 108.43,-247.37 -36.59,-92.9 -123.88,-168.11 -229.46,-139.68 z"
     id="path71-8"
     style="clip-rule:evenodd;fill:#000000;fill-rule:evenodd;image-rendering:optimizeQuality;shape-rendering:geometricPrecision;text-rendering:geometricPrecision" /><path
     class="fil3"
     d="m 8904.2195,10570.229 c -6.41,-29.93 -100.91,-169.99 -123.53,-209.01 -123.98,-213.82 -180.48,-345.51 -257.37,-576.06 -9.81,-29.43 -20.13,-115.31 -35.82,-132.55 -17.38,25.75 -18.86,268.05 -18.24,320.92 1.3,111.95 13.03,183.81 52.97,287.94 37.74,98.43 53.06,139.2 141.14,201.1 28.18,19.8 32.66,13.74 58.87,24.79 12.73,5.36 34.13,27.64 49.52,37.51 45.58,29.22 78.02,43.72 132.46,45.36 z"
     id="path73-7"
     style="clip-rule:evenodd;fill:#ff0000;fill-rule:evenodd;image-rendering:optimizeQuality;shape-rendering:geometricPrecision;text-rendering:geometricPrecision" /><path
     class="fil5"
     d="m 14645.229,11657.239 c -11.11,-52.02 -74.21,-115.53 3.4,-166.6 100.12,-65.86 207.2,105.37 259.14,176.05 49.43,67.27 63.45,69.1 83.47,154.91 61.18,-6.09 26,-82.29 4.13,-111.4 -24.48,-32.57 -53.14,-65.25 -75.9,-98.75 -62.76,-92.39 -73.97,-113.88 -157.78,-191.6 -223.78,-207.49 -200.05,-5.79 -192.78,145.4 2.47,51.61 13.56,103.56 76.32,91.99 z"
     id="path77-9"
     style="clip-rule:evenodd;fill:#000000;fill-rule:evenodd;stroke:#000000;image-rendering:optimizeQuality;shape-rendering:geometricPrecision;text-rendering:geometricPrecision" /><path
     class="fil3"
     d="m 11919.329,11194.079 -0.3,-205.24 c -67.74,-14.48 -142.17,-34.55 -212.68,-32.74 7.83,86.15 124.96,228.31 212.98,237.98 z"
     id="path79-2"
     style="clip-rule:evenodd;fill:#ff0000;fill-rule:evenodd;stroke:#ff0000;image-rendering:optimizeQuality;shape-rendering:geometricPrecision;text-rendering:geometricPrecision" /><path
     class="fil3"
     d="m 11953.439,11198.019 c 83.03,-4.83 149.65,-102.32 179.07,-172.53 -29.68,-27.1 -129.67,-34.42 -171.69,-32.34 z"
     id="path81-0"
     style="clip-rule:evenodd;fill:#ff0000;fill-rule:evenodd;stroke:#ff0000;image-rendering:optimizeQuality;shape-rendering:geometricPrecision;text-rendering:geometricPrecision" /><path
     style="fill:none;stroke:#ff0000;stroke-width:26.4583px;stroke-linecap:butt;stroke-linejoin:miter;stroke-opacity:1"
     d="m 11599.26,10940.999 -633.006,-135.95"
     id="path4209" /></g></g>
</svg>
